<svg id="Capa_1" enable-background="new 0 0 512 512" height="512" viewBox="0 0 512 512" width="512" xmlns="http://www.w3.org/2000/svg"><g id="XMLID_979_"><g id="XMLID_644_"><path id="XMLID_953_" d="m465.481 290.359c-4.18-10.09-13.562-16.359-24.484-16.359h-18.997v-264c0-5.522-4.477-10-10-10h-111c-5.523 0-10 4.478-10 10s4.477 10 10 10h101v264c0 5.522 4.477 10 10 10h28.997c3.921 0 5.507 2.807 6.007 4.014.5 1.206 1.363 4.313-1.409 7.085l-184.998 184.997c-2.534 2.535-6.66 2.535-9.194 0l-184.997-184.997c-2.772-2.772-1.909-5.879-1.409-7.085.5-1.207 2.085-4.014 6.007-4.014h28.996c5.523 0 10-4.478 10-10v-264h101c5.523 0 10-4.478 10-10s-4.477-10-10-10h-111c-5.523 0-10 4.478-10 10v264h-18.997c-10.923 0-20.305 6.269-24.484 16.359-4.18 10.092-1.979 21.158 5.745 28.882l184.996 184.997c5.006 5.005 11.661 7.762 18.74 7.762s13.734-2.757 18.74-7.762l184.997-184.997c7.722-7.723 9.924-18.79 5.744-28.882z"/><path id="XMLID_954_" d="m224.119 190.387c1.408.684 2.896 1.007 4.361 1.007 3.709 0 7.273-2.073 9.003-5.634l55.024-113.306c2.413-4.968.341-10.951-4.627-13.363-4.971-2.415-10.952-.341-13.364 4.627l-55.024 113.306c-2.412 4.967-.341 10.951 4.627 13.363z"/><path id="XMLID_957_" d="m307.415 131.474c-17.645 0-32 14.355-32 32s14.355 32 32 32 32-14.355 32-32-14.355-32-32-32zm0 44c-6.617 0-12-5.383-12-12s5.383-12 12-12 12 5.383 12 12-5.383 12-12 12z"/><path id="XMLID_960_" d="m172.585 86.005c0 17.645 14.355 32 32 32s32-14.355 32-32-14.355-32-32-32-32 14.355-32 32zm44 0c0 6.617-5.383 12-12 12s-12-5.383-12-12 5.383-12 12-12 12 5.383 12 12z"/><path id="XMLID_1106_" d="m296 266.42c5.523 0 10-4.478 10-10s-4.477-10-10-10h-32.187c-5.523 0-10 4.478-10 10v79.414c0 5.522 4.477 10 10 10s10-4.478 10-10v-30.459h19.63c5.523 0 10-4.478 10-10s-4.477-10-10-10h-19.63v-18.955z"/><path id="XMLID_1665_" d="m183.813 246.127c-27.57 0-50 22.43-50 50s22.43 50 50 50 50-22.43 50-50-22.43-50-50-50zm0 80c-16.542 0-30-13.458-30-30s13.458-30 30-30 30 13.458 30 30-13.458 30-30 30z"/><path id="XMLID_1740_" d="m368.187 266.42c5.523 0 10-4.478 10-10s-4.477-10-10-10h-32.187c-5.523 0-10 4.478-10 10v79.414c0 5.522 4.477 10 10 10s10-4.478 10-10v-30.459h19.63c5.523 0 10-4.478 10-10s-4.477-10-10-10h-19.63v-18.955z"/><path id="XMLID_1741_" d="m256 20c2.63 0 5.21-1.07 7.07-2.931 1.86-1.859 2.93-4.439 2.93-7.069s-1.07-5.21-2.93-7.07-4.44-2.93-7.07-2.93-5.21 1.069-7.07 2.93c-1.86 1.86-2.93 4.44-2.93 7.07s1.07 5.21 2.93 7.069c1.86 1.861 4.44 2.931 7.07 2.931z"/></g></g></svg>